<svg xmlns="http://www.w3.org/2000/svg" viewBox="0 0 496 496"><defs/><g fill="#ffcb57"><path d="M296 80c-26.952 0-51.752 8.992-71.784 24H232l3.24 32.44C251.04 121.336 272.416 112 296 112c48.6 0 88 39.4 88 88s-39.4 88-88 88-88-39.4-88-88h-32c0 66.272 53.728 120 120 120s120-53.728 120-120S362.272 80 296 80z"/><path d="M200 416c26.952 0 51.752-8.992 71.784-24H264l-3.24-32.44C244.96 374.664 223.584 384 200 384c-48.6 0-88-39.4-88-88s39.4-88 88-88 88 39.4 88 88h32c0-66.272-53.728-120-120-120S80 229.728 80 296s53.728 120 120 120z"/></g><g fill="#3f3a34"><path d="M312.544 443.672l-40.44-32.344-4.72 2.696c-9.824 5.616-20.448 10.008-31.584 13.048l-5.24 1.432L224.84 480h-49.688l-5.72-51.496-5.24-1.432c-11.144-3.04-21.768-7.432-31.584-13.048l-4.72-2.696-40.44 32.344-35.128-35.128 32.352-40.432-2.704-4.72c-5.616-9.824-10.008-20.448-13.048-31.576l-1.416-5.256L16 320.84v-49.68l51.504-5.72 1.432-5.248c3.04-11.128 7.432-21.752 13.048-31.576l2.704-4.72-32.352-40.432 35.128-35.128 40.44 32.344 4.72-2.696c9.824-5.616 20.448-10.008 31.584-13.048l5.24-1.432L175.16 112h49.688l5.72 51.496 5.24 1.432c11.144 3.04 21.768 7.432 31.584 13.048l4.72 2.696 40.44-32.344 35.128 35.128-32.352 40.432 2.704 4.72c5.616 9.824 10.008 20.448 13.048 31.576l15.44-4.208a151.916 151.916 0 00-11.96-30.504l34.56-43.208-55.376-55.376-43.208 34.56a151.821 151.821 0 00-25.248-10.424L239.16 96h-78.312l-6.12 55.024a151.54 151.54 0 00-25.248 10.424l-43.208-34.56-55.376 55.376 34.56 43.208a151.821 151.821 0 00-10.424 25.248L0 256.84v78.32l55.032 6.12a151.422 151.422 0 0010.424 25.248l-34.56 43.208 55.376 55.376 43.208-34.56a151.821 151.821 0 0025.248 10.424L160.84 496h78.312l6.12-55.024a151.54 151.54 0 0025.248-10.424l43.208 34.56 50.312-50.32-11.312-11.312-40.184 40.192z"/><path d="M274.544 266.912l14.904-5.824C274.96 223.984 239.848 200 200 200c-52.936 0-96 43.064-96 96s43.064 96 96 96c18.68 0 36.792-5.368 52.368-15.528l-8.736-13.408C230.656 371.528 215.568 376 200 376c-44.112 0-80-35.888-80-80s35.888-80 80-80c33.208 0 62.48 19.984 74.544 50.912z"/><path d="M496 239.16v-78.32l-55.032-6.12a151.422 151.422 0 00-10.424-25.248l34.56-43.208-55.376-55.376-43.208 34.56a151.821 151.821 0 00-25.248-10.424L335.16 0h-78.312l-6.12 55.024a151.54 151.54 0 00-25.248 10.424l-43.208-34.56-50.312 50.32 11.312 11.312 40.184-40.192 40.44 32.344 4.72-2.696c9.824-5.616 20.448-10.008 31.584-13.048l5.24-1.432L271.16 16h49.688l5.72 51.496 5.24 1.432c11.144 3.04 21.768 7.432 31.584 13.048l4.72 2.696 40.44-32.344 35.128 35.128-32.352 40.432 2.704 4.72c5.616 9.824 10.008 20.448 13.048 31.576l1.432 5.248L480 175.16v49.68l-51.504 5.72-1.432 5.248c-3.04 11.128-7.432 21.752-13.048 31.576l-2.704 4.72 32.352 40.432-35.128 35.128-40.44-32.344-4.72 2.696c-9.824 5.616-20.448 10.008-31.584 13.048l-5.24 1.432L320.84 384h-49.688l-5.72-51.496-5.24-1.432c-11.144-3.04-21.768-7.432-31.584-13.048l-4.72-2.696-40.44 32.344-35.128-35.128 32.352-40.432-2.704-4.72c-5.616-9.824-10.008-20.448-13.048-31.576l-15.44 4.208a151.916 151.916 0 0011.96 30.504l-34.56 43.208 55.376 55.376 43.208-34.56a151.821 151.821 0 0025.248 10.424L256.84 400h78.312l6.12-55.024a151.54 151.54 0 0025.248-10.424l43.208 34.56 55.376-55.376-34.56-43.208a151.821 151.821 0 0010.424-25.248L496 239.16z"/><path d="M296 296c52.936 0 96-43.064 96-96s-43.064-96-96-96c-15.368 0-30.048 3.52-43.64 10.472l7.28 14.248c11.32-5.784 23.552-8.72 36.36-8.72 44.112 0 80 35.888 80 80s-35.888 80-80 80c-33.208 0-62.48-19.984-74.544-50.912l-14.904 5.824C221.04 272.016 256.152 296 296 296z"/></g><g fill="#e56565"><path d="M288 48h16v16h-16zM205.494 301.793l-11.314 11.314-11.313-11.314 11.313-11.313zM288 336h16v16h-16zM409.137 301.798l-11.314 11.314-11.313-11.314 11.313-11.313zM432 192h16v16h-16zM409.136 98.173l-11.313 11.313-11.314-11.313 11.314-11.314zM192 144h16v16h-16zM109.493 194.172L98.18 205.486l-11.314-11.314L98.18 182.86zM48 288h16v16H48zM109.493 397.797L98.18 409.111l-11.314-11.314 11.314-11.313zM192 432h16v16h-16zM313.136 194.17l-11.313 11.313-11.314-11.314 11.314-11.313z"/></g></svg>
